<svg width="44" height="44" viewBox="0 0 44 44" fill="none" xmlns="http://www.w3.org/2000/svg">
<circle cx="22" cy="22" r="22" fill="#4B3527"/>
<mask id="path-2-outside-1_810_79" maskUnits="userSpaceOnUse" x="11" y="10" width="21" height="23" fill="black">
<rect fill="white" x="11" y="10" width="21" height="23"/>
<path d="M22.9072 14.672C23.3392 16 23.5632 17.64 23.5792 19.592C23.6112 21.528 23.5392 23.032 23.3632 24.104C23.2032 25.176 22.8672 26.28 22.3552 27.416L23.7472 30.2C24.0512 30.696 23.9392 31.016 23.4112 31.16C22.8832 31.288 22.5152 31.144 22.3072 30.728L21.4672 28.928C20.8272 29.984 19.9792 30.688 18.9232 31.04C17.8672 31.376 16.6832 31.208 15.3712 30.536C14.0752 29.848 13.2432 28.096 12.8752 25.28C12.5232 22.464 12.5632 19.696 12.9952 16.976C13.4432 14.24 14.4912 12.544 16.1392 11.888C17.7872 11.216 19.2192 11.184 20.4352 11.792C21.6512 12.384 22.4752 13.344 22.9072 14.672ZM16.7152 13.232C15.5952 13.936 14.8752 15.512 14.5552 17.96C14.2352 20.392 14.2192 22.696 14.5072 24.872C14.8112 27.032 15.3712 28.448 16.1872 29.12C17.0032 29.776 17.7792 29.96 18.5152 29.672C19.2512 29.368 19.9392 28.64 20.5792 27.488L17.8912 22.376C17.7792 22.024 18.0192 21.832 18.6112 21.8C19.2032 21.768 19.5472 21.896 19.6432 22.184L21.4192 25.832C21.6592 24.856 21.8272 23.768 21.9232 22.568C22.0192 21.352 21.9712 19.648 21.7792 17.456C21.5872 15.264 20.9792 13.84 19.9552 13.184C18.9312 12.512 17.8512 12.528 16.7152 13.232ZM29.7845 12.776C30.3605 12.808 30.6005 12.96 30.5045 13.232L28.0325 31.184C27.9525 31.472 27.6725 31.592 27.1925 31.544C26.7125 31.48 26.5045 31.296 26.5685 30.992L28.9205 13.16C28.9205 12.872 29.2085 12.744 29.7845 12.776Z"/>
</mask>
<path d="M22.9072 14.672C23.3392 16 23.5632 17.64 23.5792 19.592C23.6112 21.528 23.5392 23.032 23.3632 24.104C23.2032 25.176 22.8672 26.28 22.3552 27.416L23.7472 30.2C24.0512 30.696 23.9392 31.016 23.4112 31.16C22.8832 31.288 22.5152 31.144 22.3072 30.728L21.4672 28.928C20.8272 29.984 19.9792 30.688 18.9232 31.04C17.8672 31.376 16.6832 31.208 15.3712 30.536C14.0752 29.848 13.2432 28.096 12.8752 25.28C12.5232 22.464 12.5632 19.696 12.9952 16.976C13.4432 14.24 14.4912 12.544 16.1392 11.888C17.7872 11.216 19.2192 11.184 20.4352 11.792C21.6512 12.384 22.4752 13.344 22.9072 14.672ZM16.7152 13.232C15.5952 13.936 14.8752 15.512 14.5552 17.96C14.2352 20.392 14.2192 22.696 14.5072 24.872C14.8112 27.032 15.3712 28.448 16.1872 29.12C17.0032 29.776 17.7792 29.96 18.5152 29.672C19.2512 29.368 19.9392 28.64 20.5792 27.488L17.8912 22.376C17.7792 22.024 18.0192 21.832 18.6112 21.8C19.2032 21.768 19.5472 21.896 19.6432 22.184L21.4192 25.832C21.6592 24.856 21.8272 23.768 21.9232 22.568C22.0192 21.352 21.9712 19.648 21.7792 17.456C21.5872 15.264 20.9792 13.84 19.9552 13.184C18.9312 12.512 17.8512 12.528 16.7152 13.232ZM29.7845 12.776C30.3605 12.808 30.6005 12.96 30.5045 13.232L28.0325 31.184C27.9525 31.472 27.6725 31.592 27.1925 31.544C26.7125 31.48 26.5045 31.296 26.5685 30.992L28.9205 13.16C28.9205 12.872 29.2085 12.744 29.7845 12.776Z" fill="#F8F4F3"/>
<path d="M22.9072 14.672L21.9562 14.9813L22.9072 14.672ZM23.5792 19.592L22.5792 19.6002L22.5793 19.6085L23.5792 19.592ZM23.3632 24.104L22.3764 23.942L22.3752 23.9492L22.3741 23.9564L23.3632 24.104ZM22.3552 27.416L21.4435 27.0051L21.2483 27.4383L21.4607 27.8632L22.3552 27.416ZM23.7472 30.2L22.8527 30.6472L22.872 30.6858L22.8946 30.7226L23.7472 30.2ZM23.4112 31.16L23.6468 32.1318L23.6606 32.1285L23.6743 32.1248L23.4112 31.16ZM22.3072 30.728L21.401 31.1509L21.4067 31.1631L21.4127 31.1752L22.3072 30.728ZM21.4672 28.928L22.3733 28.5051L21.5819 26.8092L20.612 28.4097L21.4672 28.928ZM18.9232 31.04L19.2264 31.993L19.2394 31.9887L18.9232 31.04ZM15.3712 30.536L14.9023 31.4193L14.9087 31.4227L14.9153 31.426L15.3712 30.536ZM12.8752 25.28L11.8829 25.404L11.8836 25.4096L12.8752 25.28ZM12.9952 16.976L12.0083 16.8144L12.0075 16.8191L12.9952 16.976ZM16.1392 11.888L16.509 12.8171L16.5167 12.814L16.1392 11.888ZM20.4352 11.792L19.9879 12.6865L19.9974 12.6911L20.4352 11.792ZM16.7152 13.232L16.1884 12.382L16.183 12.3854L16.7152 13.232ZM14.5552 17.96L15.5466 18.0905L15.5467 18.0896L14.5552 17.96ZM14.5072 24.872L13.5158 25.0032L13.5169 25.0114L14.5072 24.872ZM16.1872 29.12L15.5514 29.892L15.5606 29.8994L16.1872 29.12ZM18.5152 29.672L18.8796 30.6032L18.8883 30.5998L18.8969 30.5963L18.5152 29.672ZM20.5792 27.488L21.4533 27.9736L21.7158 27.5011L21.4643 27.0226L20.5792 27.488ZM17.8912 22.376L16.9382 22.6792L16.965 22.7633L17.0061 22.8414L17.8912 22.376ZM19.6432 22.184L18.6945 22.5002L18.7153 22.5626L18.744 22.6217L19.6432 22.184ZM21.4192 25.832L20.52 26.2697L21.7301 28.7553L22.3902 26.0708L21.4192 25.832ZM21.9232 22.568L22.92 22.6477L22.9201 22.6467L21.9232 22.568ZM21.7792 17.456L20.783 17.5433L21.7792 17.456ZM19.9552 13.184L19.4065 14.0201L19.4157 14.026L19.9552 13.184ZM21.9562 14.9813C22.3468 16.1819 22.5637 17.7131 22.5792 19.6002L24.5791 19.5838C24.5626 17.5669 24.3316 15.8181 23.8581 14.3627L21.9562 14.9813ZM22.5793 19.6085C22.6109 21.5233 22.538 22.9577 22.3764 23.942L24.3499 24.266C24.5403 23.1063 24.6114 21.5327 24.579 19.5755L22.5793 19.6085ZM22.3741 23.9564C22.2295 24.9251 21.9232 25.9406 21.4435 27.0051L23.2668 27.8269C23.8111 26.6194 24.1768 25.4269 24.3522 24.2516L22.3741 23.9564ZM21.4607 27.8632L22.8527 30.6472L24.6416 29.7528L23.2496 26.9688L21.4607 27.8632ZM22.8946 30.7226C22.9348 30.7883 22.9315 30.8012 22.9237 30.768C22.9144 30.7284 22.899 30.6197 22.9473 30.4816C22.9973 30.3389 23.0853 30.2506 23.1422 30.2094C23.1896 30.175 23.2052 30.1796 23.148 30.1952L23.6743 32.1248C24.0568 32.0204 24.6165 31.7668 24.835 31.1424C25.0429 30.5485 24.8004 30.0048 24.5998 29.6774L22.8946 30.7226ZM23.1756 30.1882C23.1096 30.2041 23.0739 30.2054 23.063 30.2052C23.054 30.205 23.0713 30.2041 23.1036 30.2168C23.1192 30.2229 23.1356 30.2311 23.1515 30.2414C23.1674 30.2517 23.1803 30.2624 23.1902 30.272C23.2103 30.2915 23.2112 30.3 23.2016 30.2808L21.4127 31.1752C21.6066 31.5631 21.9204 31.9014 22.3748 32.0792C22.8095 32.2493 23.2562 32.2265 23.6468 32.1318L23.1756 30.1882ZM23.2133 30.3051L22.3733 28.5051L20.561 29.3509L21.401 31.1509L23.2133 30.3051ZM20.612 28.4097C20.0805 29.2866 19.4129 29.8227 18.6069 30.0913L19.2394 31.9887C20.5454 31.5534 21.5738 30.6814 22.3224 29.4463L20.612 28.4097ZM18.62 30.0871C17.8898 30.3194 16.9843 30.2387 15.827 29.646L14.9153 31.426C16.382 32.1773 17.8445 32.4326 19.2264 31.9929L18.62 30.0871ZM15.84 29.6527C15.011 29.2126 14.2293 27.925 13.8667 25.1504L11.8836 25.4096C12.257 28.267 13.1393 30.4834 14.9023 31.4193L15.84 29.6527ZM13.8674 25.156C13.5267 22.4305 13.566 19.7571 13.9828 17.1329L12.0075 16.8191C11.5603 19.6349 11.5196 22.4975 11.8829 25.404L13.8674 25.156ZM13.982 17.1376C14.4072 14.5411 15.3434 13.2811 16.509 12.8171L15.7693 10.9589C13.6389 11.8069 12.4792 13.9388 12.0083 16.8144L13.982 17.1376ZM16.5167 12.814C17.9856 12.215 19.1035 12.2442 19.9879 12.6864L20.8824 10.8976C19.3348 10.1238 17.5887 10.217 15.7616 10.962L16.5167 12.814ZM19.9974 12.6911C20.9606 13.16 21.6051 13.902 21.9562 14.9813L23.8581 14.3627C23.3452 12.786 22.3417 11.608 20.8729 10.8929L19.9974 12.6911ZM16.183 12.3854C14.6614 13.3418 13.8913 15.3235 13.5636 17.8304L15.5467 18.0896C15.859 15.7005 16.5289 14.5302 17.2473 14.0786L16.183 12.3854ZM13.5637 17.8295C13.2336 20.3384 13.2151 22.7309 13.5158 25.0032L15.4985 24.7408C15.2233 22.6611 15.2367 20.4456 15.5466 18.0905L13.5637 17.8295ZM13.5169 25.0114C13.8245 27.1968 14.42 28.9602 15.5514 29.8919L16.8229 28.3481C16.3223 27.9358 15.7978 26.8672 15.4974 24.7326L13.5169 25.0114ZM15.5606 29.8994C16.5522 30.6966 17.7022 31.0639 18.8796 30.6032L18.1508 28.7408C17.8561 28.8561 17.4541 28.8554 16.8137 28.3406L15.5606 29.8994ZM18.8969 30.5963C19.9402 30.1654 20.7696 29.2043 21.4533 27.9736L19.705 27.0024C19.1087 28.0757 18.5621 28.5706 18.1334 28.7477L18.8969 30.5963ZM21.4643 27.0226L18.7763 21.9106L17.0061 22.8414L19.6941 27.9534L21.4643 27.0226ZM18.8441 22.0728C18.8537 22.1031 18.8833 22.2151 18.8466 22.371C18.8062 22.5428 18.708 22.6719 18.6119 22.7489C18.5303 22.8141 18.4724 22.8252 18.4931 22.8196C18.51 22.8151 18.5628 22.8041 18.6651 22.7985L18.5572 20.8015C18.2168 20.8199 17.7385 20.8863 17.3625 21.1871C17.1463 21.3601 16.9722 21.6052 16.8997 21.913C16.831 22.2049 16.8726 22.4729 16.9382 22.6792L18.8441 22.0728ZM18.6651 22.7985C18.7738 22.7927 18.8527 22.7953 18.9066 22.8008C18.9617 22.8064 18.9765 22.8137 18.9644 22.8092C18.9507 22.8041 18.8985 22.7822 18.8376 22.7246C18.7726 22.6632 18.7224 22.5841 18.6945 22.5002L20.5918 21.8678C20.428 21.3762 20.0519 21.0799 19.6619 20.9348C19.3062 20.8024 18.9159 20.7821 18.5572 20.8015L18.6651 22.7985ZM18.744 22.6217L20.52 26.2697L22.3183 25.3943L20.5423 21.7463L18.744 22.6217ZM22.3902 26.0708C22.6453 25.0335 22.8205 23.8912 22.92 22.6477L20.9263 22.4883C20.8338 23.6448 20.673 24.6785 20.4481 25.5932L22.3902 26.0708ZM22.9201 22.6467C23.0226 21.3482 22.969 19.5796 22.7753 17.3687L20.783 17.5433C20.9733 19.7164 21.0157 21.3558 20.9263 22.4893L22.9201 22.6467ZM22.7753 17.3687C22.5771 15.1052 21.9298 13.2614 20.4946 12.342L19.4157 14.026C20.0285 14.4186 20.5972 15.4228 20.783 17.5433L22.7753 17.3687ZM20.5038 12.348C19.8478 11.9174 19.1283 11.6808 18.3623 11.6921C17.6028 11.7034 16.874 11.9571 16.1884 12.382L17.2419 14.082C17.6923 13.8029 18.0715 13.6966 18.392 13.6919C18.706 13.6872 19.0385 13.7786 19.4065 14.02L20.5038 12.348ZM29.7845 12.776L29.8399 11.7775H29.8399L29.7845 12.776ZM30.5045 13.232L29.5615 12.8992L29.5277 12.995L29.5138 13.0956L30.5045 13.232ZM28.0325 31.184L28.996 31.4516L29.014 31.3869L29.0231 31.3204L28.0325 31.184ZM27.1925 31.544L27.0603 32.5352L27.0766 32.5374L27.093 32.539L27.1925 31.544ZM26.5685 30.992L27.547 31.198L27.5549 31.1606L27.5599 31.1228L26.5685 30.992ZM28.9205 13.16L29.9119 13.2908L29.9205 13.2257V13.16H28.9205ZM29.729 13.7745C29.8368 13.7804 29.9016 13.7908 29.9335 13.798C29.9715 13.8066 29.9324 13.8037 29.8614 13.7588C29.7813 13.7081 29.6399 13.5881 29.5666 13.3721C29.4939 13.1581 29.5326 12.9811 29.5615 12.8992L31.4475 13.5648C31.5244 13.3469 31.569 13.0489 31.4604 12.7289C31.351 12.4069 31.1316 12.1959 30.9315 12.0692C30.5822 11.8479 30.1565 11.7951 29.8399 11.7775L29.729 13.7745ZM29.5138 13.0956L27.0418 31.0476L29.0231 31.3204L31.4951 13.3684L29.5138 13.0956ZM27.069 30.9164C27.0854 30.8571 27.1205 30.7802 27.1851 30.7069C27.2494 30.6341 27.3187 30.5922 27.3685 30.5709C27.4144 30.5512 27.4374 30.5514 27.4207 30.553C27.4044 30.5545 27.3635 30.5561 27.292 30.549L27.093 32.539C27.4126 32.571 27.7957 32.5637 28.1564 32.4091C28.569 32.2323 28.873 31.8944 28.996 31.4516L27.069 30.9164ZM27.3246 30.5528C27.2907 30.5482 27.2654 30.5435 27.2477 30.5394C27.2298 30.5353 27.2221 30.5326 27.2226 30.5328C27.223 30.5329 27.2348 30.5371 27.2545 30.5481C27.2743 30.5592 27.3045 30.5784 27.339 30.609C27.4143 30.6756 27.4906 30.779 27.5306 30.9145C27.5688 31.0438 27.5577 31.1474 27.547 31.198L25.5899 30.786C25.4945 31.2394 25.6039 31.7443 26.0139 32.107C26.341 32.3964 26.7525 32.4942 27.0603 32.5352L27.3246 30.5528ZM27.5599 31.1228L29.9119 13.2908L27.9291 13.0292L25.5771 30.8612L27.5599 31.1228ZM29.9205 13.16C29.9205 13.2623 29.892 13.4055 29.7967 13.5432C29.7054 13.6751 29.5973 13.7375 29.5426 13.7618C29.4927 13.784 29.4752 13.7805 29.5169 13.7759C29.5553 13.7716 29.6236 13.7686 29.729 13.7745L29.8399 11.7775C29.5045 11.7589 29.0949 11.7722 28.7303 11.9342C28.5316 12.0225 28.3156 12.1689 28.1523 12.4048C27.9849 12.6465 27.9205 12.9137 27.9205 13.16H29.9205Z" fill="#F8F4F3" mask="url(#path-2-outside-1_810_79)"/>
</svg>
