<svg width="44" height="44" viewBox="0 0 44 44" fill="none" xmlns="http://www.w3.org/2000/svg">
<circle cx="22" cy="22" r="22" fill="#4B3527"/>
<mask id="path-2-outside-1_810_80" maskUnits="userSpaceOnUse" x="9" y="10" width="27" height="23" fill="black">
<rect fill="white" x="9" y="10" width="27" height="23"/>
<path d="M21.1611 14.672C21.5931 16 21.8171 17.64 21.8331 19.592C21.8651 21.528 21.7931 23.032 21.6171 24.104C21.4571 25.176 21.1211 26.28 20.6091 27.416L22.0011 30.2C22.3051 30.696 22.1931 31.016 21.6651 31.16C21.1371 31.288 20.7691 31.144 20.5611 30.728L19.7211 28.928C19.0811 29.984 18.2331 30.688 17.1771 31.04C16.1211 31.376 14.9371 31.208 13.6251 30.536C12.3291 29.848 11.4971 28.096 11.1291 25.28C10.7771 22.464 10.8171 19.696 11.2491 16.976C11.6971 14.24 12.7451 12.544 14.3931 11.888C16.0411 11.216 17.4731 11.184 18.6891 11.792C19.9051 12.384 20.7291 13.344 21.1611 14.672ZM14.9691 13.232C13.8491 13.936 13.1291 15.512 12.8091 17.96C12.4891 20.392 12.4731 22.696 12.7611 24.872C13.0651 27.032 13.6251 28.448 14.4411 29.12C15.2571 29.776 16.0331 29.96 16.7691 29.672C17.5051 29.368 18.1931 28.64 18.8331 27.488L16.1451 22.376C16.0331 22.024 16.2731 21.832 16.8651 21.8C17.4571 21.768 17.8011 21.896 17.8971 22.184L19.6731 25.832C19.9131 24.856 20.0811 23.768 20.1771 22.568C20.2731 21.352 20.2251 19.648 20.0331 17.456C19.8411 15.264 19.2331 13.84 18.2091 13.184C17.1851 12.512 16.1051 12.528 14.9691 13.232ZM28.8304 12.704H29.6704C31.9584 12.912 33.0144 14.168 32.8384 16.472C32.4544 18.84 30.6384 22.976 27.3904 28.88C30.3824 29.616 32.7184 30.208 34.3984 30.656C34.7344 30.8 34.8064 31.008 34.6144 31.28C34.4384 31.536 34.1024 31.648 33.6064 31.616L27.5824 30.296C26.8784 30.104 26.2544 30.176 25.7104 30.512L23.5744 31.904C23.2704 31.968 23.0304 31.808 22.8544 31.424C22.6784 31.04 22.7344 30.776 23.0224 30.632L24.7504 29.408C25.5344 28.88 26.1024 28.272 26.4544 27.584C27.6864 25.36 28.7024 23.376 29.5024 21.632C30.3184 19.888 30.8544 18.536 31.1104 17.576C31.3824 16.6 31.4144 15.792 31.2064 15.152C31.0144 14.496 30.5584 14.104 29.8384 13.976C29.1184 13.832 28.4784 13.912 27.9184 14.216C27.3584 14.504 26.8944 14.968 26.5264 15.608C26.1584 16.232 25.8864 17.128 25.7104 18.296C25.6464 18.808 25.3904 18.952 24.9424 18.728C24.4944 18.504 24.3024 18.152 24.3664 17.672C24.7824 14.664 26.2704 13.008 28.8304 12.704Z"/>
</mask>
<path d="M21.1611 14.672C21.5931 16 21.8171 17.64 21.8331 19.592C21.8651 21.528 21.7931 23.032 21.6171 24.104C21.4571 25.176 21.1211 26.28 20.6091 27.416L22.0011 30.2C22.3051 30.696 22.1931 31.016 21.6651 31.16C21.1371 31.288 20.7691 31.144 20.5611 30.728L19.7211 28.928C19.0811 29.984 18.2331 30.688 17.1771 31.04C16.1211 31.376 14.9371 31.208 13.6251 30.536C12.3291 29.848 11.4971 28.096 11.1291 25.28C10.7771 22.464 10.8171 19.696 11.2491 16.976C11.6971 14.24 12.7451 12.544 14.3931 11.888C16.0411 11.216 17.4731 11.184 18.6891 11.792C19.9051 12.384 20.7291 13.344 21.1611 14.672ZM14.9691 13.232C13.8491 13.936 13.1291 15.512 12.8091 17.96C12.4891 20.392 12.4731 22.696 12.7611 24.872C13.0651 27.032 13.6251 28.448 14.4411 29.12C15.2571 29.776 16.0331 29.96 16.7691 29.672C17.5051 29.368 18.1931 28.64 18.8331 27.488L16.1451 22.376C16.0331 22.024 16.2731 21.832 16.8651 21.8C17.4571 21.768 17.8011 21.896 17.8971 22.184L19.6731 25.832C19.9131 24.856 20.0811 23.768 20.1771 22.568C20.2731 21.352 20.2251 19.648 20.0331 17.456C19.8411 15.264 19.2331 13.84 18.2091 13.184C17.1851 12.512 16.1051 12.528 14.9691 13.232ZM28.8304 12.704H29.6704C31.9584 12.912 33.0144 14.168 32.8384 16.472C32.4544 18.84 30.6384 22.976 27.3904 28.88C30.3824 29.616 32.7184 30.208 34.3984 30.656C34.7344 30.8 34.8064 31.008 34.6144 31.28C34.4384 31.536 34.1024 31.648 33.6064 31.616L27.5824 30.296C26.8784 30.104 26.2544 30.176 25.7104 30.512L23.5744 31.904C23.2704 31.968 23.0304 31.808 22.8544 31.424C22.6784 31.04 22.7344 30.776 23.0224 30.632L24.7504 29.408C25.5344 28.88 26.1024 28.272 26.4544 27.584C27.6864 25.36 28.7024 23.376 29.5024 21.632C30.3184 19.888 30.8544 18.536 31.1104 17.576C31.3824 16.6 31.4144 15.792 31.2064 15.152C31.0144 14.496 30.5584 14.104 29.8384 13.976C29.1184 13.832 28.4784 13.912 27.9184 14.216C27.3584 14.504 26.8944 14.968 26.5264 15.608C26.1584 16.232 25.8864 17.128 25.7104 18.296C25.6464 18.808 25.3904 18.952 24.9424 18.728C24.4944 18.504 24.3024 18.152 24.3664 17.672C24.7824 14.664 26.2704 13.008 28.8304 12.704Z" fill="#F8F4F3"/>
<path d="M21.1611 14.672L20.2101 14.9813L21.1611 14.672ZM21.8331 19.592L20.8331 19.6002L20.8332 19.6085L21.8331 19.592ZM21.6171 24.104L20.6303 23.942L20.6291 23.9492L20.628 23.9564L21.6171 24.104ZM20.6091 27.416L19.6974 27.0051L19.5022 27.4383L19.7146 27.8632L20.6091 27.416ZM22.0011 30.2L21.1066 30.6472L21.1259 30.6858L21.1485 30.7226L22.0011 30.2ZM21.6651 31.16L21.9007 32.1318L21.9145 32.1285L21.9282 32.1248L21.6651 31.16ZM20.5611 30.728L19.6549 31.1509L19.6606 31.1631L19.6666 31.1752L20.5611 30.728ZM19.7211 28.928L20.6272 28.5051L19.8358 26.8092L18.8659 28.4097L19.7211 28.928ZM17.1771 31.04L17.4803 31.993L17.4933 31.9887L17.1771 31.04ZM13.6251 30.536L13.1562 31.4193L13.1627 31.4227L13.1692 31.426L13.6251 30.536ZM11.1291 25.28L10.1368 25.404L10.1375 25.4096L11.1291 25.28ZM11.2491 16.976L10.2622 16.8144L10.2614 16.8191L11.2491 16.976ZM14.3931 11.888L14.7629 12.8171L14.7706 12.814L14.3931 11.888ZM18.6891 11.792L18.2418 12.6865L18.2513 12.6911L18.6891 11.792ZM14.9691 13.232L14.4423 12.382L14.4369 12.3854L14.9691 13.232ZM12.8091 17.96L13.8005 18.0905L13.8006 18.0896L12.8091 17.96ZM12.7611 24.872L11.7697 25.0032L11.7708 25.0114L12.7611 24.872ZM14.4411 29.12L13.8053 29.892L13.8145 29.8994L14.4411 29.12ZM16.7691 29.672L17.1335 30.6032L17.1422 30.5998L17.1508 30.5963L16.7691 29.672ZM18.8331 27.488L19.7072 27.9736L19.9698 27.5011L19.7182 27.0226L18.8331 27.488ZM16.1451 22.376L15.1921 22.6792L15.2189 22.7633L15.26 22.8414L16.1451 22.376ZM17.8971 22.184L16.9484 22.5002L16.9692 22.5626L16.998 22.6217L17.8971 22.184ZM19.6731 25.832L18.774 26.2697L19.984 28.7553L20.6441 26.0708L19.6731 25.832ZM20.1771 22.568L21.1739 22.6477L21.174 22.6467L20.1771 22.568ZM20.0331 17.456L19.0369 17.5433L20.0331 17.456ZM18.2091 13.184L17.6604 14.0201L17.6696 14.026L18.2091 13.184ZM20.2101 14.9813C20.6007 16.1819 20.8176 17.7131 20.8331 19.6002L22.833 19.5838C22.8165 17.5669 22.5855 15.8181 22.112 14.3627L20.2101 14.9813ZM20.8332 19.6085C20.8648 21.5233 20.7919 22.9577 20.6303 23.942L22.6039 24.266C22.7942 23.1063 22.8653 21.5327 22.8329 19.5755L20.8332 19.6085ZM20.628 23.9564C20.4834 24.9251 20.1771 25.9406 19.6974 27.0051L21.5207 27.8269C22.065 26.6194 22.4307 25.4269 22.6061 24.2516L20.628 23.9564ZM19.7146 27.8632L21.1066 30.6472L22.8955 29.7528L21.5035 26.9688L19.7146 27.8632ZM21.1485 30.7226C21.1887 30.7883 21.1855 30.8012 21.1776 30.768C21.1683 30.7284 21.1529 30.6197 21.2012 30.4816C21.2512 30.3389 21.3392 30.2506 21.3961 30.2094C21.4435 30.175 21.4591 30.1796 21.4019 30.1952L21.9282 32.1248C22.3107 32.0204 22.8704 31.7668 23.0889 31.1424C23.2968 30.5485 23.0543 30.0048 22.8537 29.6774L21.1485 30.7226ZM21.4295 30.1882C21.3635 30.2041 21.3278 30.2054 21.3169 30.2052C21.3079 30.205 21.3252 30.2041 21.3575 30.2168C21.3731 30.2229 21.3895 30.2311 21.4054 30.2414C21.4213 30.2517 21.4342 30.2624 21.4441 30.272C21.4642 30.2915 21.4651 30.3 21.4555 30.2808L19.6666 31.1752C19.8606 31.5631 20.1743 31.9014 20.6287 32.0792C21.0634 32.2493 21.5101 32.2265 21.9007 32.1318L21.4295 30.1882ZM21.4672 30.3051L20.6272 28.5051L18.8149 29.3509L19.6549 31.1509L21.4672 30.3051ZM18.8659 28.4097C18.3344 29.2866 17.6668 29.8227 16.8608 30.0913L17.4933 31.9887C18.7993 31.5534 19.8277 30.6814 20.5763 29.4463L18.8659 28.4097ZM16.8739 30.0871C16.1437 30.3194 15.2382 30.2387 14.0809 29.646L13.1692 31.426C14.6359 32.1773 16.0985 32.4326 17.4803 31.9929L16.8739 30.0871ZM14.094 29.6527C13.2649 29.2126 12.4832 27.925 12.1206 25.1504L10.1375 25.4096C10.5109 28.267 11.3932 30.4834 13.1562 31.4193L14.094 29.6527ZM12.1213 25.156C11.7807 22.4305 11.8199 19.7571 12.2367 17.1329L10.2614 16.8191C9.81423 19.6349 9.77347 22.4975 10.1368 25.404L12.1213 25.156ZM12.2359 17.1376C12.6611 14.5411 13.5973 13.2811 14.7629 12.8171L14.0232 10.9589C11.8928 11.8069 10.7331 13.9388 10.2622 16.8144L12.2359 17.1376ZM14.7706 12.814C16.2395 12.215 17.3574 12.2442 18.2418 12.6864L19.1363 10.8976C17.5888 10.1238 15.8426 10.217 14.0155 10.962L14.7706 12.814ZM18.2513 12.6911C19.2145 13.16 19.859 13.902 20.2101 14.9813L22.112 14.3627C21.5991 12.786 20.5956 11.608 19.1268 10.8929L18.2513 12.6911ZM14.4369 12.3854C12.9153 13.3418 12.1452 15.3235 11.8175 17.8304L13.8006 18.0896C14.1129 15.7005 14.7828 14.5302 15.5012 14.0786L14.4369 12.3854ZM11.8176 17.8295C11.4875 20.3384 11.469 22.7309 11.7697 25.0032L13.7524 24.7408C13.4772 22.6611 13.4906 20.4456 13.8005 18.0905L11.8176 17.8295ZM11.7708 25.0114C12.0784 27.1968 12.6739 28.9602 13.8054 29.8919L15.0768 28.3481C14.5762 27.9358 14.0517 26.8672 13.7513 24.7326L11.7708 25.0114ZM13.8145 29.8994C14.8061 30.6966 15.9561 31.0639 17.1335 30.6032L16.4047 28.7408C16.11 28.8561 15.708 28.8554 15.0676 28.3406L13.8145 29.8994ZM17.1508 30.5963C18.1941 30.1654 19.0235 29.2043 19.7072 27.9736L17.9589 27.0024C17.3626 28.0757 16.816 28.5706 16.3873 28.7477L17.1508 30.5963ZM19.7182 27.0226L17.0302 21.9106L15.26 22.8414L17.948 27.9534L19.7182 27.0226ZM17.098 22.0728C17.1076 22.1031 17.1372 22.2151 17.1005 22.371C17.0601 22.5428 16.9619 22.6719 16.8658 22.7489C16.7842 22.8141 16.7263 22.8252 16.747 22.8196C16.7639 22.8151 16.8167 22.8041 16.919 22.7985L16.8111 20.8015C16.4707 20.8199 15.9924 20.8863 15.6164 21.1871C15.4002 21.3601 15.2261 21.6052 15.1536 21.913C15.0849 22.2049 15.1265 22.4729 15.1921 22.6792L17.098 22.0728ZM16.919 22.7985C17.0277 22.7927 17.1067 22.7953 17.1605 22.8008C17.2156 22.8064 17.2304 22.8137 17.2183 22.8092C17.2047 22.8041 17.1524 22.7822 17.0916 22.7246C17.0265 22.6632 16.9763 22.5841 16.9484 22.5002L18.8457 21.8678C18.6819 21.3762 18.3058 21.0799 17.9158 20.9348C17.5601 20.8024 17.1698 20.7821 16.8111 20.8015L16.919 22.7985ZM16.998 22.6217L18.774 26.2697L20.5722 25.3943L18.7962 21.7463L16.998 22.6217ZM20.6441 26.0708C20.8992 25.0335 21.0744 23.8912 21.1739 22.6477L19.1802 22.4883C19.0877 23.6448 18.9269 24.6785 18.702 25.5932L20.6441 26.0708ZM21.174 22.6467C21.2765 21.3482 21.2229 19.5796 21.0292 17.3687L19.0369 17.5433C19.2272 19.7164 19.2697 21.3558 19.1802 22.4893L21.174 22.6467ZM21.0292 17.3687C20.831 15.1052 20.1837 13.2614 18.7485 12.342L17.6696 14.026C18.2824 14.4186 18.8511 15.4228 19.0369 17.5433L21.0292 17.3687ZM18.7577 12.348C18.1017 11.9174 17.3823 11.6808 16.6162 11.6921C15.8567 11.7034 15.1279 11.9571 14.4423 12.382L15.4958 14.082C15.9462 13.8029 16.3254 13.6966 16.6459 13.6919C16.9599 13.6872 17.2925 13.7786 17.6604 14.02L18.7577 12.348ZM28.8304 12.704V11.704H28.7712L28.7125 11.711L28.8304 12.704ZM29.6704 12.704L29.7609 11.7081L29.7157 11.704H29.6704V12.704ZM32.8384 16.472L33.8255 16.6321L33.8323 16.5903L33.8355 16.5482L32.8384 16.472ZM27.3904 28.88L26.5142 28.398L25.8861 29.5398L27.1515 29.8511L27.3904 28.88ZM34.3984 30.656L34.7923 29.7369L34.7259 29.7084L34.656 29.6898L34.3984 30.656ZM34.6144 31.28L33.7973 30.7033L33.7903 30.7135L34.6144 31.28ZM33.6064 31.616L33.3923 32.5928L33.4664 32.609L33.542 32.6139L33.6064 31.616ZM27.5824 30.296L27.3193 31.2608L27.3436 31.2674L27.3683 31.2728L27.5824 30.296ZM25.7104 30.512L25.1849 29.6612L25.1746 29.6676L25.1644 29.6742L25.7104 30.512ZM23.5744 31.904L23.7804 32.8825L23.9635 32.844L24.1204 32.7418L23.5744 31.904ZM23.0224 30.632L23.4696 31.5264L23.538 31.4922L23.6004 31.448L23.0224 30.632ZM24.7504 29.408L24.1918 28.5786L24.182 28.5852L24.1724 28.592L24.7504 29.408ZM26.4544 27.584L25.5796 27.0994L25.5716 27.1138L25.5641 27.1285L26.4544 27.584ZM29.5024 21.632L28.5966 21.2082L28.5934 21.2151L29.5024 21.632ZM31.1104 17.576L30.147 17.3075L30.1441 17.3183L31.1104 17.576ZM31.2064 15.152L30.2466 15.4329L30.2508 15.4471L30.2553 15.4611L31.2064 15.152ZM29.8384 13.976L29.6423 14.9566L29.6528 14.9587L29.6633 14.9606L29.8384 13.976ZM27.9184 14.216L28.3757 15.1053L28.3857 15.1002L28.3955 15.0949L27.9184 14.216ZM26.5264 15.608L27.3878 16.116L27.3933 16.1065L26.5264 15.608ZM25.7104 18.296L24.7215 18.147L24.7197 18.1595L24.7181 18.172L25.7104 18.296ZM24.9424 18.728L25.3896 17.8336L24.9424 18.728ZM24.3664 17.672L23.3758 17.535L23.3751 17.5398L24.3664 17.672ZM28.8304 13.704H29.6704V11.704H28.8304V13.704ZM29.5798 13.6999C30.5677 13.7897 31.1129 14.0886 31.413 14.4455C31.7139 14.8035 31.9176 15.3973 31.8413 16.3958L33.8355 16.5482C33.9352 15.2427 33.6988 14.0565 32.9438 13.1585C32.1879 12.2594 31.061 11.8263 29.7609 11.7081L29.5798 13.6999ZM31.8513 16.3119C31.6799 17.3689 31.171 18.9021 30.2727 20.948C29.381 22.979 28.1301 25.4607 26.5142 28.398L28.2665 29.362C29.8987 26.3953 31.1798 23.857 32.104 21.752C33.0217 19.6619 33.6129 17.9431 33.8255 16.6321L31.8513 16.3119ZM27.1515 29.8511C30.1412 30.5865 32.47 31.1767 34.1407 31.6222L34.656 29.6898C32.9668 29.2393 30.6235 28.6455 27.6292 27.9089L27.1515 29.8511ZM34.0045 31.5751C34.078 31.6067 33.8611 31.541 33.7594 31.2471C33.7062 31.0935 33.7127 30.9497 33.7387 30.8455C33.7621 30.752 33.7973 30.7035 33.7974 30.7033L35.4313 31.8567C35.614 31.598 35.8365 31.1336 35.6494 30.5929C35.4756 30.091 35.0548 29.8493 34.7923 29.7369L34.0045 31.5751ZM33.7903 30.7135C33.8127 30.681 33.8405 30.6533 33.8687 30.633C33.8959 30.6135 33.9143 30.6073 33.9141 30.6073C33.9131 30.6077 33.8947 30.6136 33.8527 30.6176C33.8107 30.6216 33.7511 30.6233 33.6708 30.6181L33.542 32.6139C34.1678 32.6543 34.963 32.538 35.4384 31.8465L33.7903 30.7135ZM33.8204 30.6392L27.7964 29.3192L27.3683 31.2728L33.3923 32.5928L33.8204 30.6392ZM27.8455 29.3312C26.9157 29.0777 25.9989 29.1584 25.1849 29.6612L26.2359 31.3628C26.5099 31.1936 26.8411 31.1304 27.3193 31.2608L27.8455 29.3312ZM25.1644 29.6742L23.0284 31.0662L24.1204 32.7418L26.2564 31.3498L25.1644 29.6742ZM23.3684 30.9254C23.4019 30.9184 23.4596 30.9124 23.5322 30.9252C23.6064 30.9383 23.6712 30.9667 23.7211 31C23.8112 31.0601 23.8079 31.1043 23.7634 31.0073L21.9453 31.8407C22.0769 32.1277 22.2815 32.4439 22.6117 32.6641C22.9737 32.9054 23.3879 32.9652 23.7804 32.8825L23.3684 30.9254ZM23.7634 31.0073C23.7177 30.9076 23.778 30.9786 23.7426 31.1455C23.7228 31.2387 23.6788 31.3307 23.6144 31.4071C23.5536 31.4792 23.4946 31.5139 23.4696 31.5264L22.5752 29.7376C22.2174 29.9165 21.8898 30.2419 21.7861 30.7305C21.6947 31.1614 21.815 31.5564 21.9453 31.8407L23.7634 31.0073ZM23.6004 31.448L25.3284 30.224L24.1724 28.592L22.4444 29.816L23.6004 31.448ZM25.309 30.2374C26.2023 29.6358 26.9001 28.9083 27.3446 28.0395L25.5641 27.1285C25.3047 27.6357 24.8664 28.1242 24.1918 28.5786L25.309 30.2374ZM27.3291 28.0686C28.5697 25.8291 29.598 23.8219 30.4113 22.0489L28.5934 21.2151C27.8067 22.9301 26.803 24.8909 25.5796 27.0994L27.3291 28.0686ZM30.4081 22.0558C31.2305 20.2981 31.7972 18.8815 32.0766 17.8337L30.1441 17.3183C29.9116 18.1905 29.4062 19.4779 28.5966 21.2082L30.4081 22.0558ZM32.0737 17.8445C32.3735 16.7687 32.4497 15.7424 32.1574 14.8429L30.2553 15.4611C30.379 15.8416 30.3913 16.4313 30.1471 17.3075L32.0737 17.8445ZM32.1661 14.8711C32.0234 14.3836 31.7662 13.9463 31.3723 13.6077C30.9818 13.2721 30.5117 13.08 30.0134 12.9914L29.6633 14.9606C29.8851 15 30.0029 15.0679 30.0685 15.1243C30.1305 15.1777 30.1973 15.2644 30.2466 15.4329L32.1661 14.8711ZM30.0345 12.9954C29.122 12.8129 28.2377 12.9048 27.4413 13.3371L28.3955 15.0949C28.7191 14.9192 29.1148 14.8511 29.6423 14.9566L30.0345 12.9954ZM27.461 13.3267C26.7019 13.7171 26.1066 14.3319 25.6595 15.1095L27.3933 16.1065C27.6821 15.6041 28.0148 15.2909 28.3757 15.1053L27.461 13.3267ZM25.665 15.1C25.2037 15.8822 24.9061 16.9221 24.7215 18.147L26.6992 18.445C26.8666 17.3339 27.1131 16.5818 27.3877 16.116L25.665 15.1ZM24.7181 18.172C24.7106 18.2322 24.7039 18.2212 24.7276 18.1726C24.7549 18.1167 24.8283 18.0018 24.9801 17.9164C25.1345 17.8296 25.2784 17.8247 25.3553 17.8334C25.421 17.8409 25.4367 17.8571 25.3896 17.8336L24.4952 19.6224C24.807 19.7783 25.3863 19.9826 25.9606 19.6596C26.5191 19.3454 26.6602 18.7598 26.7027 18.42L24.7181 18.172ZM25.3896 17.8336C25.3452 17.8114 25.3267 17.7957 25.3233 17.7927C25.3218 17.7913 25.3236 17.7927 25.3272 17.7973C25.331 17.802 25.3356 17.8087 25.3403 17.8171C25.3449 17.8256 25.3485 17.8341 25.3511 17.8418C25.3536 17.8494 25.3545 17.8544 25.3547 17.8559C25.3552 17.859 25.3523 17.8437 25.3576 17.8042L23.3751 17.5398C23.321 17.9456 23.3671 18.3763 23.5845 18.7749C23.8002 19.1703 24.1343 19.442 24.4952 19.6224L25.3896 17.8336ZM25.3569 17.809C25.5473 16.4327 25.9682 15.4767 26.5382 14.8424C27.0946 14.2231 27.869 13.8252 28.9483 13.697L28.7125 11.711C27.2318 11.8868 25.9821 12.4689 25.0505 13.5056C24.1326 14.5273 23.6015 15.9033 23.3758 17.535L25.3569 17.809Z" fill="#F8F4F3" mask="url(#path-2-outside-1_810_80)"/>
</svg>
