<svg width="44" height="44" viewBox="0 0 44 44" fill="none" xmlns="http://www.w3.org/2000/svg">
<circle cx="22" cy="22" r="22" fill="#4B3527"/>
<mask id="path-2-outside-1_810_81" maskUnits="userSpaceOnUse" x="9" y="10" width="27" height="23" fill="black">
<rect fill="white" x="9" y="10" width="27" height="23"/>
<path d="M21.1611 14.672C21.5931 16 21.8171 17.64 21.8331 19.592C21.8651 21.528 21.7931 23.032 21.6171 24.104C21.4571 25.176 21.1211 26.28 20.6091 27.416L22.0011 30.2C22.3051 30.696 22.1931 31.016 21.6651 31.16C21.1371 31.288 20.7691 31.144 20.5611 30.728L19.7211 28.928C19.0811 29.984 18.2331 30.688 17.1771 31.04C16.1211 31.376 14.9371 31.208 13.6251 30.536C12.3291 29.848 11.4971 28.096 11.1291 25.28C10.7771 22.464 10.8171 19.696 11.2491 16.976C11.6971 14.24 12.7451 12.544 14.3931 11.888C16.0411 11.216 17.4731 11.184 18.6891 11.792C19.9051 12.384 20.7291 13.344 21.1611 14.672ZM14.9691 13.232C13.8491 13.936 13.1291 15.512 12.8091 17.96C12.4891 20.392 12.4731 22.696 12.7611 24.872C13.0651 27.032 13.6251 28.448 14.4411 29.12C15.2571 29.776 16.0331 29.96 16.7691 29.672C17.5051 29.368 18.1931 28.64 18.8331 27.488L16.1451 22.376C16.0331 22.024 16.2731 21.832 16.8651 21.8C17.4571 21.768 17.8011 21.896 17.8971 22.184L19.6731 25.832C19.9131 24.856 20.0811 23.768 20.1771 22.568C20.2731 21.352 20.2251 19.648 20.0331 17.456C19.8411 15.264 19.2331 13.84 18.2091 13.184C17.1851 12.512 16.1051 12.528 14.9691 13.232ZM26.8624 13.4C28.0144 12.888 29.1664 12.672 30.3184 12.752C31.4864 12.816 32.3024 13.128 32.7664 13.688C33.2464 14.248 33.3984 15.144 33.2224 16.376C33.0624 17.608 32.3504 19.04 31.0864 20.672C33.4544 21.104 34.6144 22.592 34.5664 25.136C34.5184 27.664 33.6544 29.416 31.9744 30.392C30.3104 31.368 28.6864 31.672 27.1024 31.304C25.5344 30.936 24.1824 30.088 23.0464 28.76C22.8384 28.552 22.8864 28.232 23.1904 27.8C23.4944 27.352 23.7584 27.288 23.9824 27.608C24.9104 28.712 25.8704 29.472 26.8624 29.888C27.8544 30.304 28.8224 30.352 29.7664 30.032C30.7264 29.712 31.5024 29.168 32.0944 28.4C32.6864 27.616 33.0144 26.712 33.0784 25.688C33.1584 24.664 32.9744 23.808 32.5264 23.12C32.0944 22.416 31.2544 21.944 30.0064 21.704L25.9984 23.552C25.6464 23.616 25.4384 23.448 25.3744 23.048C25.3264 22.632 25.4624 22.36 25.7824 22.232C27.7664 21.32 28.9664 20.688 29.3824 20.336C29.8144 19.968 30.2704 19.4 30.7504 18.632C31.2304 17.864 31.5504 17 31.7104 16.04C31.8864 15.064 31.6304 14.448 30.9424 14.192C30.2544 13.936 29.5344 13.88 28.7824 14.024C28.0304 14.168 27.4224 14.488 26.9584 14.984C26.4944 15.48 26.1824 15.928 26.0224 16.328C25.8784 16.728 25.6064 16.92 25.2064 16.904C24.8224 16.872 24.6704 16.64 24.7504 16.208C25.0064 14.832 25.7104 13.896 26.8624 13.4Z"/>
</mask>
<path d="M21.1611 14.672C21.5931 16 21.8171 17.64 21.8331 19.592C21.8651 21.528 21.7931 23.032 21.6171 24.104C21.4571 25.176 21.1211 26.28 20.6091 27.416L22.0011 30.2C22.3051 30.696 22.1931 31.016 21.6651 31.16C21.1371 31.288 20.7691 31.144 20.5611 30.728L19.7211 28.928C19.0811 29.984 18.2331 30.688 17.1771 31.04C16.1211 31.376 14.9371 31.208 13.6251 30.536C12.3291 29.848 11.4971 28.096 11.1291 25.28C10.7771 22.464 10.8171 19.696 11.2491 16.976C11.6971 14.24 12.7451 12.544 14.3931 11.888C16.0411 11.216 17.4731 11.184 18.6891 11.792C19.9051 12.384 20.7291 13.344 21.1611 14.672ZM14.9691 13.232C13.8491 13.936 13.1291 15.512 12.8091 17.96C12.4891 20.392 12.4731 22.696 12.7611 24.872C13.0651 27.032 13.6251 28.448 14.4411 29.12C15.2571 29.776 16.0331 29.96 16.7691 29.672C17.5051 29.368 18.1931 28.64 18.8331 27.488L16.1451 22.376C16.0331 22.024 16.2731 21.832 16.8651 21.8C17.4571 21.768 17.8011 21.896 17.8971 22.184L19.6731 25.832C19.9131 24.856 20.0811 23.768 20.1771 22.568C20.2731 21.352 20.2251 19.648 20.0331 17.456C19.8411 15.264 19.2331 13.84 18.2091 13.184C17.1851 12.512 16.1051 12.528 14.9691 13.232ZM26.8624 13.4C28.0144 12.888 29.1664 12.672 30.3184 12.752C31.4864 12.816 32.3024 13.128 32.7664 13.688C33.2464 14.248 33.3984 15.144 33.2224 16.376C33.0624 17.608 32.3504 19.04 31.0864 20.672C33.4544 21.104 34.6144 22.592 34.5664 25.136C34.5184 27.664 33.6544 29.416 31.9744 30.392C30.3104 31.368 28.6864 31.672 27.1024 31.304C25.5344 30.936 24.1824 30.088 23.0464 28.76C22.8384 28.552 22.8864 28.232 23.1904 27.8C23.4944 27.352 23.7584 27.288 23.9824 27.608C24.9104 28.712 25.8704 29.472 26.8624 29.888C27.8544 30.304 28.8224 30.352 29.7664 30.032C30.7264 29.712 31.5024 29.168 32.0944 28.4C32.6864 27.616 33.0144 26.712 33.0784 25.688C33.1584 24.664 32.9744 23.808 32.5264 23.12C32.0944 22.416 31.2544 21.944 30.0064 21.704L25.9984 23.552C25.6464 23.616 25.4384 23.448 25.3744 23.048C25.3264 22.632 25.4624 22.36 25.7824 22.232C27.7664 21.32 28.9664 20.688 29.3824 20.336C29.8144 19.968 30.2704 19.4 30.7504 18.632C31.2304 17.864 31.5504 17 31.7104 16.04C31.8864 15.064 31.6304 14.448 30.9424 14.192C30.2544 13.936 29.5344 13.88 28.7824 14.024C28.0304 14.168 27.4224 14.488 26.9584 14.984C26.4944 15.48 26.1824 15.928 26.0224 16.328C25.8784 16.728 25.6064 16.92 25.2064 16.904C24.8224 16.872 24.6704 16.64 24.7504 16.208C25.0064 14.832 25.7104 13.896 26.8624 13.4Z" fill="#F8F4F3"/>
<path d="M21.1611 14.672L20.2101 14.9813L21.1611 14.672ZM21.8331 19.592L20.8331 19.6002L20.8332 19.6085L21.8331 19.592ZM21.6171 24.104L20.6303 23.942L20.6291 23.9492L20.628 23.9564L21.6171 24.104ZM20.6091 27.416L19.6974 27.0051L19.5022 27.4383L19.7146 27.8632L20.6091 27.416ZM22.0011 30.2L21.1066 30.6472L21.1259 30.6858L21.1485 30.7226L22.0011 30.2ZM21.6651 31.16L21.9007 32.1318L21.9145 32.1285L21.9282 32.1248L21.6651 31.16ZM20.5611 30.728L19.6549 31.1509L19.6606 31.1631L19.6666 31.1752L20.5611 30.728ZM19.7211 28.928L20.6272 28.5051L19.8358 26.8092L18.8659 28.4097L19.7211 28.928ZM17.1771 31.04L17.4803 31.993L17.4933 31.9887L17.1771 31.04ZM13.6251 30.536L13.1562 31.4193L13.1627 31.4227L13.1692 31.426L13.6251 30.536ZM11.1291 25.28L10.1368 25.404L10.1375 25.4096L11.1291 25.28ZM11.2491 16.976L10.2622 16.8144L10.2614 16.8191L11.2491 16.976ZM14.3931 11.888L14.7629 12.8171L14.7706 12.814L14.3931 11.888ZM18.6891 11.792L18.2418 12.6865L18.2513 12.6911L18.6891 11.792ZM14.9691 13.232L14.4423 12.382L14.4369 12.3854L14.9691 13.232ZM12.8091 17.96L13.8005 18.0905L13.8006 18.0896L12.8091 17.96ZM12.7611 24.872L11.7697 25.0032L11.7708 25.0114L12.7611 24.872ZM14.4411 29.12L13.8053 29.892L13.8145 29.8994L14.4411 29.12ZM16.7691 29.672L17.1335 30.6032L17.1422 30.5998L17.1508 30.5963L16.7691 29.672ZM18.8331 27.488L19.7072 27.9736L19.9698 27.5011L19.7182 27.0226L18.8331 27.488ZM16.1451 22.376L15.1921 22.6792L15.2189 22.7633L15.26 22.8414L16.1451 22.376ZM17.8971 22.184L16.9484 22.5002L16.9692 22.5626L16.998 22.6217L17.8971 22.184ZM19.6731 25.832L18.774 26.2697L19.984 28.7553L20.6441 26.0708L19.6731 25.832ZM20.1771 22.568L21.1739 22.6477L21.174 22.6467L20.1771 22.568ZM20.0331 17.456L19.0369 17.5433L20.0331 17.456ZM18.2091 13.184L17.6604 14.0201L17.6696 14.026L18.2091 13.184ZM20.2101 14.9813C20.6007 16.1819 20.8176 17.7131 20.8331 19.6002L22.833 19.5838C22.8165 17.5669 22.5855 15.8181 22.112 14.3627L20.2101 14.9813ZM20.8332 19.6085C20.8648 21.5233 20.7919 22.9577 20.6303 23.942L22.6039 24.266C22.7942 23.1063 22.8653 21.5327 22.8329 19.5755L20.8332 19.6085ZM20.628 23.9564C20.4834 24.9251 20.1771 25.9406 19.6974 27.0051L21.5207 27.8269C22.065 26.6194 22.4307 25.4269 22.6061 24.2516L20.628 23.9564ZM19.7146 27.8632L21.1066 30.6472L22.8955 29.7528L21.5035 26.9688L19.7146 27.8632ZM21.1485 30.7226C21.1887 30.7883 21.1855 30.8012 21.1776 30.768C21.1683 30.7284 21.1529 30.6197 21.2012 30.4816C21.2512 30.3389 21.3392 30.2506 21.3961 30.2094C21.4435 30.175 21.4591 30.1796 21.4019 30.1952L21.9282 32.1248C22.3107 32.0204 22.8704 31.7668 23.0889 31.1424C23.2968 30.5485 23.0543 30.0048 22.8537 29.6774L21.1485 30.7226ZM21.4295 30.1882C21.3635 30.2041 21.3278 30.2054 21.3169 30.2052C21.3079 30.205 21.3252 30.2041 21.3575 30.2168C21.3731 30.2229 21.3895 30.2311 21.4054 30.2414C21.4213 30.2517 21.4342 30.2624 21.4441 30.272C21.4642 30.2915 21.4651 30.3 21.4555 30.2808L19.6666 31.1752C19.8606 31.5631 20.1743 31.9014 20.6287 32.0792C21.0634 32.2493 21.5101 32.2265 21.9007 32.1318L21.4295 30.1882ZM21.4672 30.3051L20.6272 28.5051L18.8149 29.3509L19.6549 31.1509L21.4672 30.3051ZM18.8659 28.4097C18.3344 29.2866 17.6668 29.8227 16.8608 30.0913L17.4933 31.9887C18.7993 31.5534 19.8277 30.6814 20.5763 29.4463L18.8659 28.4097ZM16.8739 30.0871C16.1437 30.3194 15.2382 30.2387 14.0809 29.646L13.1692 31.426C14.6359 32.1773 16.0985 32.4326 17.4803 31.9929L16.8739 30.0871ZM14.094 29.6527C13.2649 29.2126 12.4832 27.925 12.1206 25.1504L10.1375 25.4096C10.5109 28.267 11.3932 30.4834 13.1562 31.4193L14.094 29.6527ZM12.1213 25.156C11.7807 22.4305 11.8199 19.7571 12.2367 17.1329L10.2614 16.8191C9.81423 19.6349 9.77347 22.4975 10.1368 25.404L12.1213 25.156ZM12.2359 17.1376C12.6611 14.5411 13.5973 13.2811 14.7629 12.8171L14.0232 10.9589C11.8928 11.8069 10.7331 13.9388 10.2622 16.8144L12.2359 17.1376ZM14.7706 12.814C16.2395 12.215 17.3574 12.2442 18.2418 12.6864L19.1363 10.8976C17.5888 10.1238 15.8426 10.217 14.0155 10.962L14.7706 12.814ZM18.2513 12.6911C19.2145 13.16 19.859 13.902 20.2101 14.9813L22.112 14.3627C21.5991 12.786 20.5956 11.608 19.1268 10.8929L18.2513 12.6911ZM14.4369 12.3854C12.9153 13.3418 12.1452 15.3235 11.8175 17.8304L13.8006 18.0896C14.1129 15.7005 14.7828 14.5302 15.5012 14.0786L14.4369 12.3854ZM11.8176 17.8295C11.4875 20.3384 11.469 22.7309 11.7697 25.0032L13.7524 24.7408C13.4772 22.6611 13.4906 20.4456 13.8005 18.0905L11.8176 17.8295ZM11.7708 25.0114C12.0784 27.1968 12.6739 28.9602 13.8054 29.8919L15.0768 28.3481C14.5762 27.9358 14.0517 26.8672 13.7513 24.7326L11.7708 25.0114ZM13.8145 29.8994C14.8061 30.6966 15.9561 31.0639 17.1335 30.6032L16.4047 28.7408C16.11 28.8561 15.708 28.8554 15.0676 28.3406L13.8145 29.8994ZM17.1508 30.5963C18.1941 30.1654 19.0235 29.2043 19.7072 27.9736L17.9589 27.0024C17.3626 28.0757 16.816 28.5706 16.3873 28.7477L17.1508 30.5963ZM19.7182 27.0226L17.0302 21.9106L15.26 22.8414L17.948 27.9534L19.7182 27.0226ZM17.098 22.0728C17.1076 22.1031 17.1372 22.2151 17.1005 22.371C17.0601 22.5428 16.9619 22.6719 16.8658 22.7489C16.7842 22.8141 16.7263 22.8252 16.747 22.8196C16.7639 22.8151 16.8167 22.8041 16.919 22.7985L16.8111 20.8015C16.4707 20.8199 15.9924 20.8863 15.6164 21.1871C15.4002 21.3601 15.2261 21.6052 15.1536 21.913C15.0849 22.2049 15.1265 22.4729 15.1921 22.6792L17.098 22.0728ZM16.919 22.7985C17.0277 22.7927 17.1067 22.7953 17.1605 22.8008C17.2156 22.8064 17.2304 22.8137 17.2183 22.8092C17.2047 22.8041 17.1524 22.7822 17.0916 22.7246C17.0265 22.6632 16.9763 22.5841 16.9484 22.5002L18.8457 21.8678C18.6819 21.3762 18.3058 21.0799 17.9158 20.9348C17.5601 20.8024 17.1698 20.7821 16.8111 20.8015L16.919 22.7985ZM16.998 22.6217L18.774 26.2697L20.5722 25.3943L18.7962 21.7463L16.998 22.6217ZM20.6441 26.0708C20.8992 25.0335 21.0744 23.8912 21.1739 22.6477L19.1802 22.4883C19.0877 23.6448 18.9269 24.6785 18.702 25.5932L20.6441 26.0708ZM21.174 22.6467C21.2765 21.3482 21.2229 19.5796 21.0292 17.3687L19.0369 17.5433C19.2272 19.7164 19.2697 21.3558 19.1802 22.4893L21.174 22.6467ZM21.0292 17.3687C20.831 15.1052 20.1837 13.2614 18.7485 12.342L17.6696 14.026C18.2824 14.4186 18.8511 15.4228 19.0369 17.5433L21.0292 17.3687ZM18.7577 12.348C18.1017 11.9174 17.3823 11.6808 16.6162 11.6921C15.8567 11.7034 15.1279 11.9571 14.4423 12.382L15.4958 14.082C15.9462 13.8029 16.3254 13.6966 16.6459 13.6919C16.9599 13.6872 17.2925 13.7786 17.6604 14.02L18.7577 12.348ZM26.8624 13.4L27.2579 14.3185L27.2685 14.3138L26.8624 13.4ZM30.3184 12.752L30.2491 13.7496L30.2564 13.7501L30.2637 13.7505L30.3184 12.752ZM32.7664 13.688L31.9964 14.326L32.0017 14.3324L32.0071 14.3388L32.7664 13.688ZM33.2224 16.376L32.2323 16.2346L32.2307 16.2472L33.2224 16.376ZM31.0864 20.672L30.2958 20.0597L29.2883 21.3605L30.9069 21.6558L31.0864 20.672ZM34.5664 25.136L35.5662 25.155L35.5662 25.1549L34.5664 25.136ZM31.9744 30.392L31.472 29.5273L31.4684 29.5294L31.9744 30.392ZM27.1024 31.304L26.8739 32.2775L26.8761 32.2781L27.1024 31.304ZM23.0464 28.76L23.8063 28.11L23.781 28.0804L23.7535 28.0529L23.0464 28.76ZM23.1904 27.8L24.0082 28.3755L24.0131 28.3685L24.0179 28.3615L23.1904 27.8ZM23.9824 27.608L23.1631 28.1815L23.1885 28.2176L23.2169 28.2515L23.9824 27.608ZM26.8624 29.888L27.2491 28.9658L26.8624 29.888ZM29.7664 30.032L29.4501 29.0833L29.4453 29.0849L29.7664 30.032ZM32.0944 28.4L32.8864 29.0105L32.8924 29.0026L32.0944 28.4ZM33.0784 25.688L32.0814 25.6101L32.0808 25.6179L32.0803 25.6256L33.0784 25.688ZM32.5264 23.12L31.6741 23.643L31.6811 23.6544L31.6884 23.6657L32.5264 23.12ZM30.0064 21.704L30.1952 20.722L29.8796 20.6613L29.5877 20.7959L30.0064 21.704ZM25.9984 23.552L26.1773 24.5359L26.302 24.5132L26.4171 24.4601L25.9984 23.552ZM25.3744 23.048L24.381 23.1626L24.3835 23.1844L24.3869 23.206L25.3744 23.048ZM25.7824 22.232L26.1538 23.1605L26.1772 23.1511L26.2 23.1406L25.7824 22.232ZM29.3824 20.336L30.0283 21.0994L30.0308 21.0972L29.3824 20.336ZM30.7504 18.632L29.9024 18.102H29.9024L30.7504 18.632ZM31.7104 16.04L30.7262 15.8625L30.724 15.8756L31.7104 16.04ZM30.9424 14.192L31.2911 13.2548V13.2548L30.9424 14.192ZM28.7824 14.024L28.5943 13.0418L28.7824 14.024ZM26.9584 14.984L26.2281 14.3008L26.9584 14.984ZM26.0224 16.328L25.0939 15.9566L25.0874 15.9728L25.0815 15.9893L26.0224 16.328ZM25.2064 16.904L25.1233 17.9005L25.1448 17.9023L25.1664 17.9032L25.2064 16.904ZM24.7504 16.208L23.7672 16.0251L23.7671 16.0259L24.7504 16.208ZM27.2685 14.3138C28.2852 13.8619 29.2747 13.6819 30.2491 13.7496L30.3877 11.7544C29.0581 11.6621 27.7435 11.9141 26.4562 12.4862L27.2685 14.3138ZM30.2637 13.7505C31.3179 13.8083 31.7934 14.081 31.9964 14.326L33.5364 13.05C32.8114 12.175 31.6548 11.8237 30.3731 11.7535L30.2637 13.7505ZM32.0071 14.3388C32.2041 14.5687 32.3946 15.0996 32.2324 16.2346L34.2123 16.5174C34.4022 15.1884 34.2886 13.9273 33.5256 13.0372L32.0071 14.3388ZM32.2307 16.2472C32.1041 17.2223 31.515 18.4855 30.2958 20.0597L31.877 21.2843C33.1858 19.5945 34.0207 17.9937 34.214 16.5048L32.2307 16.2472ZM30.9069 21.6558C31.9181 21.8402 32.5526 22.2252 32.9437 22.7268C33.3405 23.2358 33.5877 23.9945 33.5666 25.1171L35.5662 25.1549C35.593 23.7335 35.2843 22.4762 34.521 21.4972C33.7521 20.5108 32.6226 19.9358 31.2658 19.6882L30.9069 21.6558ZM33.5666 25.117C33.5229 27.4154 32.7589 28.7797 31.472 29.5273L32.4767 31.2567C34.5499 30.0523 35.5138 27.9126 35.5662 25.155L33.5666 25.117ZM31.4684 29.5294C29.9814 30.4016 28.6179 30.6295 27.3287 30.3299L26.8761 32.2781C28.7549 32.7145 30.6393 32.3344 32.4803 31.2546L31.4684 29.5294ZM27.3309 30.3305C25.9878 30.0152 24.8165 29.2909 23.8063 28.11L22.2865 29.41C23.5483 30.8851 25.081 31.8568 26.8739 32.2775L27.3309 30.3305ZM23.7535 28.0529C23.8099 28.1093 23.8645 28.1911 23.8954 28.293C23.9252 28.3915 23.9215 28.4709 23.9153 28.5123C23.9096 28.5503 23.902 28.5569 23.9161 28.5269C23.9296 28.4979 23.9572 28.4479 24.0082 28.3755L22.3726 27.2245C22.1812 27.4965 21.9946 27.8343 21.9374 28.2157C21.8718 28.6531 21.9862 29.114 22.3393 29.4671L23.7535 28.0529ZM24.0179 28.3615C24.0658 28.2909 24.0882 28.2718 24.0804 28.2788C24.0755 28.2832 23.9998 28.352 23.852 28.3878C23.6782 28.43 23.4931 28.4046 23.3423 28.3255C23.2769 28.2912 23.2319 28.2541 23.205 28.2284C23.1784 28.2029 23.1653 28.1846 23.1631 28.1815L24.8016 27.0345C24.5763 26.7126 24.0867 26.273 23.3808 26.4441C22.8601 26.5704 22.5356 26.984 22.3629 27.2385L24.0179 28.3615ZM23.2169 28.2515C24.2139 29.4375 25.2957 30.3154 26.4756 30.8102L27.2491 28.9658C26.445 28.6286 25.6069 27.9865 24.7479 26.9645L23.2169 28.2515ZM26.4756 30.8102C27.6733 31.3124 28.8933 31.3839 30.0874 30.9791L29.4453 29.0849C28.7515 29.3201 28.0354 29.2956 27.2491 28.9658L26.4756 30.8102ZM30.0826 30.9807C31.2226 30.6007 32.1675 29.9431 32.8864 29.0105L31.3024 27.7895C30.8373 28.3929 30.2301 28.8233 29.4501 29.0833L30.0826 30.9807ZM32.8924 29.0026C33.6081 28.0549 34.0008 26.961 34.0764 25.7504L32.0803 25.6256C32.028 26.463 31.7647 27.1771 31.2963 27.7974L32.8924 29.0026ZM34.0753 25.7659C34.1681 24.5783 33.9601 23.4892 33.3644 22.5743L31.6884 23.6657C31.9887 24.1268 32.1486 24.7497 32.0814 25.6101L34.0753 25.7659ZM33.3787 22.597C32.7363 21.5502 31.5717 20.9867 30.1952 20.722L29.8175 22.686C30.9371 22.9013 31.4524 23.2818 31.6741 23.643L33.3787 22.597ZM29.5877 20.7959L25.5797 22.6439L26.4171 24.4601L30.4251 22.6121L29.5877 20.7959ZM25.8195 22.5681C25.8274 22.5667 26.0144 22.5407 26.2067 22.6961C26.373 22.8304 26.3743 22.9679 26.3618 22.89L24.3869 23.206C24.4385 23.5281 24.5757 23.9496 24.95 24.2519C25.3503 24.5753 25.8173 24.6013 26.1773 24.5359L25.8195 22.5681ZM26.3678 22.9334C26.3579 22.848 26.3807 22.8875 26.3348 22.9792C26.3111 23.0267 26.2769 23.0712 26.2363 23.1068C26.1972 23.141 26.1649 23.156 26.1538 23.1605L25.411 21.3035C25.056 21.4455 24.7382 21.7004 24.5459 22.0848C24.3641 22.4485 24.3428 22.832 24.381 23.1626L26.3678 22.9334ZM26.2 23.1406C27.1998 22.681 28.0139 22.2866 28.6364 21.9588C29.2336 21.6443 29.7274 21.354 30.0283 21.0994L28.7364 19.5726C28.6213 19.67 28.3072 19.8717 27.7044 20.1892C27.1268 20.4934 26.3489 20.871 25.3647 21.3234L26.2 23.1406ZM30.0308 21.0972C30.573 20.6354 31.0924 19.9716 31.5984 19.162L29.9024 18.102C29.4484 18.8284 29.0557 19.3006 28.7339 19.5748L30.0308 21.0972ZM31.5984 19.162C32.1532 18.2743 32.5168 17.2844 32.6968 16.2044L30.724 15.8756C30.584 16.7156 30.3076 17.4537 29.9024 18.102L31.5984 19.162ZM32.6945 16.2175C32.801 15.6268 32.8032 15.0142 32.5738 14.4622C32.328 13.8707 31.8661 13.4687 31.2911 13.2548L30.5936 15.1292C30.6608 15.1542 30.6892 15.1771 30.6988 15.1861C30.7068 15.1934 30.7161 15.2038 30.7269 15.2298C30.7536 15.2938 30.7957 15.4772 30.7262 15.8625L32.6945 16.2175ZM31.2911 13.2548C30.4241 12.9322 29.5179 12.865 28.5943 13.0418L28.9704 15.0062C29.5509 14.895 30.0847 14.9398 30.5936 15.1292L31.2911 13.2548ZM28.5943 13.0418C27.6621 13.2203 26.8548 13.631 26.2281 14.3008L27.6886 15.6672C27.99 15.345 28.3986 15.1157 28.9704 15.0062L28.5943 13.0418ZM26.2281 14.3008C25.7225 14.8413 25.3188 15.3943 25.0939 15.9566L26.9509 16.6994C27.0459 16.4617 27.2662 16.1187 27.6886 15.6672L26.2281 14.3008ZM25.0815 15.9893C25.0597 16.0497 25.061 16.0063 25.1337 15.955C25.1678 15.931 25.2022 15.9167 25.229 15.9096C25.254 15.9031 25.2623 15.9054 25.2463 15.9048L25.1664 17.9032C25.5405 17.9182 25.9369 17.8361 26.2871 17.589C26.6317 17.3457 26.841 17.0063 26.9633 16.6667L25.0815 15.9893ZM25.2894 15.9075C25.2776 15.9065 25.489 15.9262 25.6408 16.158C25.769 16.3537 25.7143 16.4949 25.7337 16.3901L23.7671 16.0259C23.7065 16.3531 23.6877 16.8263 23.9679 17.254C24.2718 17.7178 24.7512 17.8695 25.1233 17.9005L25.2894 15.9075ZM25.7335 16.3909C25.9368 15.2982 26.4516 14.6656 27.2578 14.3185L26.4669 12.4815C24.9692 13.1264 24.0759 14.3658 23.7672 16.0251L25.7335 16.3909Z" fill="#F8F4F3" mask="url(#path-2-outside-1_810_81)"/>
</svg>
