<svg width="67" height="111" viewBox="0 0 67 111" fill="none" xmlns="http://www.w3.org/2000/svg">
<path fill-rule="evenodd" clip-rule="evenodd" d="M32.9347 0C52.6944 7.895e-05 66.5998 76.9598 66.5998 76.9598H44.296C42.2488 73.4209 38.4224 71.0399 34.04 71.0399C29.6576 71.0399 25.8313 73.4209 23.7841 76.9598H0C0 76.9598 13.1749 -7.89497e-05 32.9347 0ZM23.7836 76.9606H0C0 81.4308 0.861327 85.8572 2.5348 89.9872C4.20828 94.1171 6.66114 97.8696 9.75332 101.031C12.8455 104.191 16.5165 106.699 20.5566 108.409C24.5967 110.12 28.9269 111.001 33.2999 111.001C37.6729 111.001 42.0031 110.12 46.0433 108.409C50.0834 106.699 53.7543 104.191 56.8465 101.031C59.9387 97.8696 62.3916 94.1171 64.065 89.9872C65.7385 85.8573 66.5998 81.4308 66.5998 76.9606H44.2964C45.3036 78.702 45.88 80.7236 45.88 82.8799C45.88 89.4189 40.579 94.7199 34.04 94.7199C27.501 94.7199 22.2 89.4189 22.2 82.8799C22.2 80.7236 22.7764 78.702 23.7836 76.9606Z" fill="#4B3527"/>
</svg>
